<?xml version="1.0" encoding="utf-8"?>
<!DOCTYPE svg PUBLIC "-//W3C//DTD SVG 1.1//EN" "http://www.w3.org/Graphics/SVG/1.1/DTD/svg11.dtd">
<svg version="1.1" id="图形" xmlns="http://www.w3.org/2000/svg" xmlns:xlink="http://www.w3.org/1999/xlink" x="0px" y="0px" width="1024px" height="1024px" viewBox="0 0 1024 1024" enable-background="new 0 0 1024 1024" xml:space="preserve">
  <path fill="#ea8010" d="M320.958 220.091c19.197 87.542 102.448 153.362 202.362 153.362 99.942 0 183.239-65.819 202.365-153.362h82.63c-20.272 129.72-139.627 230.092-284.995 230.092-145.27 0-264.647-100.372-284.9-230.092h82.538zM523.32 526.863c22.86 0 41.293 17.181 41.293 38.34v76.731c0 21.156-18.433 38.338-41.293 38.338-22.807 0-41.293-17.181-41.293-38.338v-76.731c0-21.158 18.486-38.34 41.293-38.34zM902.947 534.259c-16.161 14.982-42.277 14.982-58.39 0l-58.382-54.255c-16.161-14.982-16.161-39.23 0-54.212 16.116-14.982 42.268-14.982 58.382 0l58.39 54.212c16.161 14.98 16.161 39.276 0 54.255zM260.465 480.004l-58.38 54.255c-16.119 14.982-42.274 14.982-58.414 0-16.113-14.979-16.113-39.276 0-54.255l58.414-54.212c16.113-14.982 42.222-14.982 58.38 0 16.116 14.983 16.116 39.231 0 54.212zM771.157 143.362h-495.626c-22.812 0-41.293-17.181-41.293-38.343 0-21.159 18.48-38.338 41.293-38.338h495.626c22.812 0 41.319 17.178 41.319 38.338 0 21.162-18.506 38.343-41.319 38.343zM688.53-10.048h-330.42c-22.807 0-41.293-17.132-41.293-38.34 0-21.161 18.486-38.343 41.293-38.343h330.419c22.857 0 41.363 17.181 41.363 38.343 0.001 21.208-18.505 38.34-41.362 38.34z" transform="translate(0, 812) scale(1, -1)"/>
</svg>
